<?xml version="1.0" encoding="UTF-8" standalone="no"?>
<svg
   xmlns:dc="http://purl.org/dc/elements/1.1/"
   xmlns:cc="http://creativecommons.org/ns#"
   xmlns:rdf="http://www.w3.org/1999/02/22-rdf-syntax-ns#"
   xmlns:svg="http://www.w3.org/2000/svg"
   xmlns="http://www.w3.org/2000/svg"
   xmlns:sodipodi="http://sodipodi.sourceforge.net/DTD/sodipodi-0.dtd"
   xmlns:inkscape="http://www.inkscape.org/namespaces/inkscape"
   width="22"
   height="18"
   viewBox="0 0 22 18"
   fill="none"
   version="1.1"
   id="svg4"
   sodipodi:docname="icon-twitter.svg"
   inkscape:version="1.0.2-2 (e86c870879, 2021-01-15)">
  <metadata
     id="metadata10">
    <rdf:RDF>
      <cc:Work
         rdf:about="">
        <dc:format>image/svg+xml</dc:format>
        <dc:type
           rdf:resource="http://purl.org/dc/dcmitype/StillImage" />
      </cc:Work>
    </rdf:RDF>
  </metadata>
  <defs
     id="defs8" />
  <sodipodi:namedview
     pagecolor="#ffffff"
     bordercolor="#666666"
     borderopacity="1"
     objecttolerance="10"
     gridtolerance="10"
     guidetolerance="10"
     inkscape:pageopacity="0"
     inkscape:pageshadow="2"
     inkscape:window-width="1280"
     inkscape:window-height="1002"
     id="namedview6"
     showgrid="false"
     inkscape:zoom="39.444444"
     inkscape:cx="11"
     inkscape:cy="9"
     inkscape:window-x="-8"
     inkscape:window-y="892"
     inkscape:window-maximized="1"
     inkscape:current-layer="svg4" />
  <g
     id="path2"
     style="opacity:1">
    <path
       style="color:#000000;font-style:normal;font-variant:normal;font-weight:normal;font-stretch:normal;font-size:medium;line-height:normal;font-family:sans-serif;font-variant-ligatures:normal;font-variant-position:normal;font-variant-caps:normal;font-variant-numeric:normal;font-variant-alternates:normal;font-variant-east-asian:normal;font-feature-settings:normal;font-variation-settings:normal;text-indent:0;text-align:start;text-decoration:none;text-decoration-line:none;text-decoration-style:solid;text-decoration-color:#000000;letter-spacing:normal;word-spacing:normal;text-transform:none;writing-mode:lr-tb;direction:ltr;text-orientation:mixed;dominant-baseline:auto;baseline-shift:baseline;text-anchor:start;white-space:normal;shape-padding:0;shape-margin:0;inline-size:0;clip-rule:evenodd;display:inline;overflow:visible;visibility:visible;isolation:auto;mix-blend-mode:normal;color-interpolation:sRGB;color-interpolation-filters:linearRGB;solid-color:#000000;solid-opacity:1;vector-effect:none;fill:#eeeeee;fill-opacity:1;fill-rule:evenodd;stroke:none;stroke-width:0.899378;stroke-linecap:butt;stroke-linejoin:miter;stroke-miterlimit:4;stroke-dasharray:none;stroke-dashoffset:0;stroke-opacity:1.0;color-rendering:auto;image-rendering:auto;shape-rendering:auto;text-rendering:auto;enable-background:accumulate;stop-color:#000000;stop-opacity:1;"
       d="M 20.5344,2.71786 C 20.5069,2.68492 20.4612,2.67389 20.4224,2.69179 19.8467,2.94938 19.2408,3.13472 18.617,3.24419 19.2794,2.74147 19.7729,2.04536 20.0258,1.24705 20.0382,1.20891 20.0256,1.16702 19.9945,1.14225 19.9634,1.11734 19.9202,1.1141 19.8861,1.13459 19.14,1.58103 18.3321,1.89568 17.4836,2.07026 17.134772,1.7049043 16.721745,1.412122 16.27065,1.2032229 15.74954,0.96189954 15.177628,0.83252 14.5952,0.83252 c -2.2099,0 -4.0076,1.81388 -4.0076,4.04345 0,0.26965 0.026,0.5367 0.0773,0.79598 C 7.60395,5.48129 4.74204,3.99867 2.796,1.59037 2.77608,1.56572 2.74587,1.55197 2.71438,1.55522 2.68301,1.55755 2.65499,1.57545 2.63931,1.60269 2.28414,2.21721 2.09659,2.92046 2.09659,3.63563 c 0,1.23969 0.55827,2.39884 1.50873,3.16356 C 3.11595,6.73991 2.63802,6.58453 2.20714,6.34315 2.17809,6.32655 2.14197,6.32681 2.11305,6.34367 2.084,6.3604 2.06561,6.39153 2.06484,6.42539 l -3.8e-4,0.05175 c 0,1.78041 1.16281,3.34371 2.81705,3.86266 -0.43577,0.0709 -0.88786,0.066 -1.33224,-0.0195 -0.03265,-0.0062 -0.06697,0.0052 -0.08946,0.0306 -0.02224,0.0256 -0.02983,0.0611 -0.01954,0.0934 0.49605,1.5623 1.87431,2.6579 3.4788,2.7944 -1.33828,0.9893 -2.92027,1.5106 -4.59161,1.5106 -0.30786,0 -0.61791,-0.0186 -0.92166,-0.0545 -0.04345,-0.0051 -0.08639,0.021 -0.10143,0.063 -0.01491,0.0424 0.00103,0.0898 0.03844,0.1139 1.80875,1.1703 3.90017,1.7887 6.04828,1.7887 7.02671,0 11.22561,-5.7591 11.22561,-11.32684 0,-0.15513 -0.0029,-0.30934 -0.0091,-0.46317 0.758,-0.5594 1.4087,-1.24423 1.9333,-2.03696 0.0234,-0.03541 0.021,-0.08262 -0.0065,-0.11557 z"
       id="path14" />
    <path
       style="color:#000000;font-style:normal;font-variant:normal;font-weight:normal;font-stretch:normal;font-size:medium;line-height:normal;font-family:sans-serif;font-variant-ligatures:normal;font-variant-position:normal;font-variant-caps:normal;font-variant-numeric:normal;font-variant-alternates:normal;font-variant-east-asian:normal;font-feature-settings:normal;font-variation-settings:normal;text-indent:0;text-align:start;text-decoration:none;text-decoration-line:none;text-decoration-style:solid;text-decoration-color:#000000;letter-spacing:normal;word-spacing:normal;text-transform:none;writing-mode:lr-tb;direction:ltr;text-orientation:mixed;dominant-baseline:auto;baseline-shift:baseline;text-anchor:start;white-space:normal;shape-padding:0;shape-margin:0;inline-size:0;clip-rule:evenodd;display:inline;overflow:visible;visibility:visible;isolation:auto;mix-blend-mode:normal;color-interpolation:sRGB;color-interpolation-filters:linearRGB;solid-color:#000000;solid-opacity:1;vector-effect:none;fill:#322f2f;fill-opacity:1;fill-rule:evenodd;stroke:none;stroke-linecap:butt;stroke-linejoin:miter;stroke-miterlimit:4;stroke-dasharray:none;stroke-dashoffset:0;stroke-opacity:1.0;color-rendering:auto;image-rendering:auto;shape-rendering:auto;text-rendering:auto;enable-background:accumulate;stop-color:#000000;stop-opacity:1;"
       d="M 14.595703 0.3828125 C 12.139734 0.3828125 10.138672 2.4037075 10.138672 4.875 C 10.138672 4.9422305 10.155292 5.0072928 10.158203 5.0742188 C 7.4375464 4.7558671 4.8940782 3.4713089 3.1464844 1.3085938 C 3.0400644 1.1769043 2.8618031 1.0955455 2.6757812 1.1113281 C 2.4975319 1.1270647 2.3375169 1.226868 2.25 1.3789062 C 1.8553941 2.0623376 1.6464844 2.8416173 1.6464844 3.6347656 C 1.6464844 4.48207 1.9488339 5.2535885 2.3769531 5.953125 C 2.217692 5.8826581 2.0383369 5.8666867 1.8867188 5.9550781 C 1.7212115 6.0515414 1.6195403 6.2266686 1.6152344 6.4160156 L 1.6152344 6.4179688 L 1.6152344 6.4746094 L 1.6152344 6.4765625 C 1.6152344 7.9283656 2.4488754 9.0791171 3.5488281 9.9082031 C 3.3917777 9.9055657 3.2305276 9.9313466 3.1230469 10.052734 L 3.1210938 10.054688 L 3.1210938 10.056641 C 2.9970892 10.19938 2.9530885 10.396039 3.0117188 10.580078 C 3.4462724 11.948696 4.5708168 12.827423 5.8710938 13.283203 C 4.7851108 13.899533 3.6043879 14.298828 2.328125 14.298828 C 2.0383776 14.298828 1.7452916 14.281885 1.4589844 14.248047 C 1.2050412 14.21824 0.96755174 14.363376 0.88085938 14.605469 L 0.88085938 14.607422 L 0.88085938 14.609375 C 0.79788137 14.845342 0.88541921 15.112016 1.0996094 15.25 C 2.9800926 16.466304 5.1568079 17.109375 7.390625 17.109375 C 14.663045 17.109375 19.066406 11.127812 19.066406 5.3339844 C 19.066406 5.235072 19.062928 5.1357796 19.060547 5.0371094 C 19.769276 4.4783532 20.413022 3.8421109 20.916016 3.0820312 C 21.048572 2.8814409 21.033554 2.6149838 20.878906 2.4296875 C 20.725981 2.2465107 20.458943 2.1796009 20.234375 2.2832031 C 20.065734 2.3585377 19.878894 2.3812894 19.705078 2.4433594 C 19.9523 2.0832583 20.318758 1.809414 20.453125 1.3867188 C 20.523154 1.1713221 20.453455 0.93283767 20.275391 0.79101562 C 20.10055 0.65097411 19.850058 0.6323711 19.654297 0.75 L 19.654297 0.74804688 C 18.997811 1.1408651 18.284074 1.4005187 17.542969 1.5703125 C 17.209435 1.2695699 16.861861 0.98149156 16.458984 0.79492188 C 15.879642 0.52663159 15.244727 0.3828125 14.595703 0.3828125 z M 14.595703 1.28125 C 15.111536 1.28125 15.619153 1.3969717 16.082031 1.6113281 C 16.482718 1.7968836 16.848945 2.0569481 17.158203 2.3808594 L 17.330078 2.5605469 L 17.574219 2.5097656 C 18.078951 2.4059163 18.530062 2.1491983 19.003906 1.953125 C 18.78667 2.2712423 18.655323 2.6517365 18.345703 2.8867188 L 18.695312 3.6875 C 18.901867 3.6512519 19.090448 3.5557799 19.292969 3.5039062 C 18.977153 3.8418004 18.713624 4.2319648 18.339844 4.5078125 L 18.148438 4.6503906 L 18.158203 4.8886719 C 18.164143 5.0360565 18.167969 5.1844587 18.167969 5.3339844 C 18.167969 10.675636 14.171625 16.210938 7.390625 16.210938 C 5.8214504 16.210938 4.3262822 15.764922 2.9160156 15.105469 C 4.4589539 14.993686 5.9340673 14.524744 7.1855469 13.599609 L 8.1445312 12.892578 L 6.9570312 12.791016 C 5.7255601 12.68625 4.7428752 11.869749 4.1875 10.771484 C 4.4440596 10.776293 4.7022471 10.824021 4.953125 10.783203 L 5.015625 9.9101562 C 3.7153596 9.5022513 2.8724404 8.3174805 2.671875 6.9589844 C 2.9644587 7.0622715 3.2426059 7.2087628 3.5507812 7.2460938 L 5.1132812 7.4355469 L 3.8867188 6.4492188 C 3.042173 5.7697151 2.546875 4.7394499 2.546875 3.6347656 C 2.546875 3.1490119 2.7278878 2.6981559 2.9140625 2.2558594 C 4.9205997 4.4843168 7.6529199 5.9352393 10.636719 6.1210938 L 11.21875 6.15625 L 11.105469 5.5839844 C 11.059965 5.3539982 11.037109 5.1157436 11.037109 4.875 C 11.037109 2.8871525 12.631872 1.28125 14.595703 1.28125 z "
       id="path16" />
  </g>
</svg>
