<?xml version="1.0" encoding="UTF-8" standalone="no"?>
<svg
   xmlns:dc="http://purl.org/dc/elements/1.1/"
   xmlns:cc="http://creativecommons.org/ns#"
   xmlns:rdf="http://www.w3.org/1999/02/22-rdf-syntax-ns#"
   xmlns:svg="http://www.w3.org/2000/svg"
   xmlns="http://www.w3.org/2000/svg"
   xmlns:sodipodi="http://sodipodi.sourceforge.net/DTD/sodipodi-0.dtd"
   xmlns:inkscape="http://www.inkscape.org/namespaces/inkscape"
   width="27"
   height="16"
   viewBox="0 0 27 16"
   fill="none"
   version="1.1"
   id="svg4"
   sodipodi:docname="icon-vk.svg"
   inkscape:version="1.0.2-2 (e86c870879, 2021-01-15)">
  <metadata
     id="metadata10">
    <rdf:RDF>
      <cc:Work
         rdf:about="">
        <dc:format>image/svg+xml</dc:format>
        <dc:type
           rdf:resource="http://purl.org/dc/dcmitype/StillImage" />
      </cc:Work>
    </rdf:RDF>
  </metadata>
  <defs
     id="defs8" />
  <sodipodi:namedview
     pagecolor="#ffffff"
     bordercolor="#666666"
     borderopacity="1"
     objecttolerance="10"
     gridtolerance="10"
     guidetolerance="10"
     inkscape:pageopacity="0"
     inkscape:pageshadow="2"
     inkscape:window-width="1280"
     inkscape:window-height="1002"
     id="namedview6"
     showgrid="false"
     inkscape:zoom="44.375"
     inkscape:cx="13.5"
     inkscape:cy="8"
     inkscape:window-x="-8"
     inkscape:window-y="892"
     inkscape:window-maximized="1"
     inkscape:current-layer="svg4" />
  <g
     id="path2"
     style="opacity:1">
    <path
       style="color:#000000;font-style:normal;font-variant:normal;font-weight:normal;font-stretch:normal;font-size:medium;line-height:normal;font-family:sans-serif;font-variant-ligatures:normal;font-variant-position:normal;font-variant-caps:normal;font-variant-numeric:normal;font-variant-alternates:normal;font-variant-east-asian:normal;font-feature-settings:normal;font-variation-settings:normal;text-indent:0;text-align:start;text-decoration:none;text-decoration-line:none;text-decoration-style:solid;text-decoration-color:#000000;letter-spacing:normal;word-spacing:normal;text-transform:none;writing-mode:lr-tb;direction:ltr;text-orientation:mixed;dominant-baseline:auto;baseline-shift:baseline;text-anchor:start;white-space:normal;shape-padding:0;shape-margin:0;inline-size:0;clip-rule:evenodd;display:inline;overflow:visible;visibility:visible;isolation:auto;mix-blend-mode:normal;color-interpolation:sRGB;color-interpolation-filters:linearRGB;solid-color:#000000;solid-opacity:1;vector-effect:none;fill:#eeeeee;fill-opacity:1;fill-rule:evenodd;stroke:none;stroke-width:0.899378;stroke-linecap:butt;stroke-linejoin:miter;stroke-miterlimit:4;stroke-dasharray:none;stroke-dashoffset:0;stroke-opacity:1.0;color-rendering:auto;image-rendering:auto;shape-rendering:auto;text-rendering:auto;enable-background:accumulate;stop-color:#000000;stop-opacity:1;"
       d="M 25.4875,12.221 C 24.735,11.3101 23.8492,10.5329 23.0114,9.70748 22.2554,8.96338 22.2077,8.53186 22.8155,7.67311 23.4787,6.73588 24.1919,5.83471 24.8612,4.90164 25.4859,4.02965 26.1246,3.16026 26.4533,2.1163 26.6618,1.45209 26.4773,1.15871 25.8023,1.04237 25.686,1.022 25.5658,1.02097 25.4474,1.02097 L 21.4425,1.01617 C 20.9493,1.00877 20.6766,1.22576 20.5022,1.66688 20.2666,2.26312 20.0239,2.85897 19.7433,3.43432 19.1068,4.73899 18.3959,5.99995 17.3991,7.06766 17.1793,7.30307 16.9362,7.60073 16.569,7.47816 16.1094,7.30903 15.9741,6.54509 15.9817,6.28685 L 15.9777,1.62278 C 15.8886,0.956503 15.7422,0.659357 15.0866,0.529785 l -4.1602,7.78e-4 c -0.5553,0 -0.8338,0.216472 -1.1303,0.566927 C 9.625,1.29995 9.57346,1.43134 9.92503,1.49853 10.6154,1.63069 11.0044,2.08154 11.1076,2.78011 11.2732,3.89619 11.2618,5.01694 11.1664,6.13757 11.1384,6.4648 11.0826,6.79113 10.9539,7.09671 10.7527,7.57687 10.4279,7.67466 10.0013,7.3792 9.61485,7.11176 9.3435,6.73432 9.07779,6.35534 8.08016,4.93277 7.28408,3.39892 6.63493,1.78685 6.44752,1.32122 6.12397,1.03886 5.63485,1.03134 4.43335,1.01202 3.23146,1.00877 2.02995,1.03238 1.30702,1.04613 1.09144,1.40034 1.38581,2.06156 2.69452,4.99879 4.15118,7.8543 6.05262,10.4556 c 0.97629,1.3349 2.09721,2.5135 3.54513,3.3486 1.64115,0.9467 3.40775,1.2318 5.26825,1.144 0.8713,-0.0412 1.1329,-0.2699 1.1733,-1.146 0.0272,-0.5995 0.0946,-1.1955 0.3876,-1.734 0.2877,-0.5287 0.7234,-0.6295 1.2255,-0.3005 0.2511,0.1645 0.4627,0.3743 0.6626,0.5952 0.4904,0.5412 0.9633,1.0988 1.4722,1.6219 0.6384,0.6555 1.3946,1.0427 2.3455,0.9637 l 3.681,6e-4 c 0.5929,-0.0392 0.9004,-0.7729 0.56,-1.4407 -0.2392,-0.4678 -0.5531,-0.8843 -0.8862,-1.2874 z"
       id="path14" />
    <path
       style="color:#000000;font-style:normal;font-variant:normal;font-weight:normal;font-stretch:normal;font-size:medium;line-height:normal;font-family:sans-serif;font-variant-ligatures:normal;font-variant-position:normal;font-variant-caps:normal;font-variant-numeric:normal;font-variant-alternates:normal;font-variant-east-asian:normal;font-feature-settings:normal;font-variation-settings:normal;text-indent:0;text-align:start;text-decoration:none;text-decoration-line:none;text-decoration-style:solid;text-decoration-color:#000000;letter-spacing:normal;word-spacing:normal;text-transform:none;writing-mode:lr-tb;direction:ltr;text-orientation:mixed;dominant-baseline:auto;baseline-shift:baseline;text-anchor:start;white-space:normal;shape-padding:0;shape-margin:0;inline-size:0;clip-rule:evenodd;display:inline;overflow:visible;visibility:visible;isolation:auto;mix-blend-mode:normal;color-interpolation:sRGB;color-interpolation-filters:linearRGB;solid-color:#000000;solid-opacity:1;vector-effect:none;fill:#322f2f;fill-opacity:1;fill-rule:evenodd;stroke:none;stroke-linecap:butt;stroke-linejoin:miter;stroke-miterlimit:4;stroke-dasharray:none;stroke-dashoffset:0;stroke-opacity:1.0;color-rendering:auto;image-rendering:auto;shape-rendering:auto;text-rendering:auto;enable-background:accumulate;stop-color:#000000;stop-opacity:1;"
       d="M 10.925781 0.080078125 C 10.253613 0.080078125 9.7803315 0.41989134 9.453125 0.80664062 C 9.4020564 0.86706934 9.3513879 0.9305852 9.3027344 1.0175781 C 9.2540809 1.104571 9.1924053 1.2328156 9.21875 1.4140625 C 9.2450947 1.5953094 9.385265 1.7528947 9.5019531 1.8222656 C 9.6186412 1.8916366 9.7234189 1.9172027 9.8398438 1.9394531 C 10.37536 2.0419689 10.578698 2.2810811 10.662109 2.8457031 C 10.820855 3.9155866 10.812257 5.0012118 10.71875 6.0996094 C 10.692912 6.4015777 10.641358 6.678988 10.539062 6.921875 L 10.539062 6.9238281 C 10.467591 7.094394 10.419144 7.101958 10.433594 7.0976562 C 10.448044 7.0933545 10.408108 7.1138589 10.257812 7.0097656 C 9.9531659 6.7989371 9.7089766 6.4737182 9.4453125 6.0976562 C 8.4703601 4.7074233 7.6912192 3.2047253 7.0527344 1.6191406 C 6.8218988 1.0456176 6.3016537 0.59216424 5.6425781 0.58203125 C 4.4370684 0.56264677 3.2296943 0.55828959 2.0214844 0.58203125 C 1.5874651 0.59028622 1.1699252 0.70497808 0.9453125 1.0664062 C 0.72069976 1.4278344 0.79870165 1.849013 0.97460938 2.2441406 C 2.2897092 5.1957117 3.7600613 8.0811632 5.6894531 10.720703 C 6.6881092 12.086185 7.8535133 13.316956 9.3730469 14.193359 C 11.101338 15.190327 12.967043 15.487077 14.886719 15.396484 C 15.359461 15.37413 15.768513 15.308423 16.076172 15.013672 C 16.383831 14.71892 16.466107 14.303133 16.488281 13.822266 C 16.514568 13.242886 16.582004 12.724776 16.822266 12.283203 C 16.926296 12.092029 17.007551 12.046949 17.064453 12.033203 C 17.121356 12.019457 17.222685 12.024251 17.40625 12.144531 C 17.607612 12.276447 17.793408 12.455192 17.982422 12.664062 C 18.466212 13.197968 18.941661 13.761047 19.464844 14.298828 C 20.165326 15.018074 21.078598 15.487151 22.169922 15.396484 L 22.132812 15.398438 L 25.828125 15.398438 L 25.84375 15.398438 C 26.319377 15.366991 26.700702 15.03347 26.861328 14.630859 C 27.021954 14.228248 26.998779 13.746765 26.773438 13.304688 L 26.773438 13.302734 C 26.511148 12.789779 26.175264 12.348615 25.833984 11.935547 C 25.051116 10.987886 24.151618 10.199967 23.326172 9.3867188 C 22.975775 9.0418371 22.863783 8.8329251 22.849609 8.6894531 C 22.835436 8.5459812 22.901465 8.3294492 23.181641 7.9335938 C 23.835543 7.0095029 24.549005 6.1086445 25.226562 5.1640625 C 25.849164 4.2950022 26.525476 3.3868649 26.882812 2.2519531 C 27.00408 1.8656348 27.0496 1.4755486 26.84375 1.1386719 C 26.6379 0.80179517 26.272 0.66736119 25.878906 0.59960938 C 25.713279 0.57059966 25.568274 0.5703125 25.447266 0.5703125 L 21.449219 0.56640625 C 21.135449 0.56169843 20.833387 0.63382329 20.591797 0.80664062 C 20.350207 0.97945796 20.19138 1.230312 20.083984 1.5019531 C 19.849544 2.0952591 19.611606 2.6790999 19.339844 3.2363281 C 18.711134 4.5250299 18.019372 5.7451456 17.070312 6.7617188 C 16.952328 6.8880822 16.851219 6.9915243 16.791016 7.03125 C 16.736694 7.0670946 16.752173 7.0615747 16.71875 7.0488281 C 16.679332 7.0308654 16.586606 6.9359741 16.521484 6.7597656 C 16.454548 6.5786447 16.430532 6.3384345 16.431641 6.3007812 L 16.431641 6.2929688 L 16.427734 1.5917969 L 16.423828 1.5625 C 16.376153 1.2059944 16.31527 0.88658087 16.105469 0.60546875 C 15.895667 0.32435663 15.559527 0.16411964 15.173828 0.087890625 L 15.130859 0.080078125 L 10.925781 0.080078125 z M 15.017578 0.97851562 C 15.257765 1.0294488 15.337451 1.0811343 15.384766 1.1445312 C 15.433073 1.209258 15.486227 1.3734201 15.527344 1.6679688 L 15.53125 6.2734375 C 15.524758 6.4940242 15.564021 6.7645741 15.677734 7.0722656 C 15.791448 7.3799572 15.991747 7.744981 16.414062 7.9003906 L 16.419922 7.9023438 L 16.425781 7.9042969 C 16.741355 8.0096342 17.079013 7.9205174 17.287109 7.7832031 C 17.495206 7.6458888 17.6267 7.4840465 17.728516 7.375 C 18.773056 6.2561532 19.502194 4.9514976 20.146484 3.6308594 L 20.148438 3.6308594 C 20.437876 3.0373876 20.683163 2.4312053 20.919922 1.8320312 C 20.986927 1.6625523 21.053574 1.5831702 21.115234 1.5390625 C 21.176895 1.4949548 21.256117 1.4621516 21.435547 1.4648438 L 21.439453 1.4667969 L 25.447266 1.4707031 C 25.563058 1.4707031 25.657637 1.4726447 25.724609 1.484375 L 25.724609 1.4863281 L 25.726562 1.4863281 C 26.008469 1.5349163 26.073147 1.6024711 26.076172 1.6074219 C 26.079197 1.6123727 26.11067 1.7045302 26.023438 1.9824219 C 25.723207 2.9347688 25.122547 3.7661884 24.496094 4.640625 C 23.835305 5.5617451 23.12141 6.4641265 22.449219 7.4140625 C 22.121595 7.8769571 21.908351 8.3043432 21.955078 8.7773438 C 22.001805 9.2503443 22.28971 9.6281254 22.695312 10.027344 C 23.545467 10.864935 24.418493 11.633673 25.140625 12.507812 C 25.465203 12.900599 25.7568 13.290744 25.972656 13.712891 C 26.087714 13.938613 26.08164 14.155886 26.025391 14.296875 C 25.969142 14.437864 25.900476 14.492246 25.783203 14.5 L 22.113281 14.498047 L 22.095703 14.5 C 21.285227 14.567334 20.685692 14.263629 20.109375 13.671875 C 19.614757 13.163456 19.145447 12.609041 18.648438 12.060547 C 18.437651 11.827617 18.199275 11.587709 17.898438 11.390625 C 17.579902 11.181905 17.211913 11.073577 16.853516 11.160156 C 16.495118 11.246735 16.21492 11.51599 16.03125 11.853516 C 15.685512 12.488942 15.617957 13.16163 15.589844 13.78125 C 15.571618 14.176483 15.504191 14.314358 15.453125 14.363281 C 15.402059 14.412205 15.244261 14.479201 14.845703 14.498047 C 13.044379 14.583054 11.376275 14.310495 9.8222656 13.414062 C 8.4459592 12.620266 7.3699395 11.493772 6.4160156 10.189453 C 4.5425274 7.6263931 3.0991952 4.8017951 1.796875 1.8789062 C 1.6784127 1.6128138 1.7186671 1.525435 1.7089844 1.5410156 C 1.6993016 1.5565963 1.7501518 1.4879169 2.0390625 1.4824219 C 3.2338726 1.4589435 4.4294628 1.4612132 5.6269531 1.4804688 L 5.6289062 1.4804688 C 5.9480707 1.4853758 6.0728124 1.5973412 6.2167969 1.9550781 L 6.21875 1.9550781 C 6.8785651 3.5936334 7.6886768 5.1583742 8.7089844 6.6132812 C 8.9767403 6.9951793 9.2778403 7.4239954 9.7460938 7.7480469 C 10.022399 7.9394136 10.357606 8.0583561 10.691406 7.9589844 C 11.024725 7.8597558 11.239355 7.580548 11.369141 7.2714844 L 11.369141 7.2695312 C 11.523662 6.9018619 11.585124 6.5276748 11.615234 6.1757812 C 11.712527 5.0329188 11.725189 3.8771203 11.552734 2.7148438 C 11.451659 2.0306582 10.991528 1.5348212 10.380859 1.2636719 C 10.522274 1.1317045 10.622114 0.98046875 10.925781 0.98046875 L 15.017578 0.97851562 z "
       id="path16" />
  </g>
</svg>
