<svg width="322" height="43" viewBox="0 0 322 43" fill="none" xmlns="http://www.w3.org/2000/svg">
<g clip-path="url(#clip0)">
<path fill-rule="evenodd" clip-rule="evenodd" d="M87.773 15.31V11.1969C87.773 10.5063 87.2147 9.94152 86.532 9.94152H80.076C79.5101 9.94152 78.9432 10.3497 78.849 11.0207V11.0174C78.8404 11.0765 78.8361 11.5997 78.8361 11.6609V15.31C78.8361 15.9995 79.3943 16.5654 80.076 16.5654H83.3045H86.532C87.2147 16.5654 87.773 15.9995 87.773 15.31ZM87.1335 19.1385H86.123H84.5379H83.3045H83.2104H79.4755C77.7336 19.1385 75.6876 17.7047 75.6876 15.8146V10.6923C75.6876 8.80215 77.7336 7.36835 79.4755 7.36835H80.2664H81.4663H82.3719H83.9969H87.1335C88.8744 7.36835 90.9203 8.80215 90.9203 10.6923V15.8146C90.9203 17.7037 88.8733 19.1385 87.1335 19.1385ZM62.2 9.96889C62.1362 9.98311 62.0745 10.0017 62.015 10.0247C62.0745 10.0017 62.1362 9.98311 62.2 9.96889ZM62.3699 9.94481C62.3223 9.94809 62.2746 9.95463 62.2281 9.96338C62.2746 9.95463 62.3223 9.94809 62.3699 9.94481ZM68.9287 9.94259L68.9135 9.94152H62.4564V9.94259H68.9135H68.9287ZM70.1523 15.3527L70.1534 14.9247V11.1969C70.1534 10.5194 69.6146 9.96231 68.9492 9.94259H68.9135H62.4575C61.7759 9.94259 61.2165 10.5063 61.2165 11.1969V15.31C61.2165 15.9995 61.7759 16.5654 62.4575 16.5654H68.9135C69.581 16.5654 70.1296 16.0236 70.1523 15.3527ZM69.514 19.1385H66.9184H66.9151H66.8589H66.8048H66.7496H66.6933H66.6382H66.583H66.5278H66.4726H66.4174H66.3623H66.306H66.2519H66.1957H66.1404H66.0853H66.0301H65.9749H61.8559C61.6645 19.1385 61.4708 19.121 61.2803 19.0893V25.1911C61.2803 26.7836 60.0026 28.0762 58.4283 28.0762H58.0691V10.6923C58.0691 8.80215 60.1151 7.36835 61.8559 7.36835H62.3569H64.7523H65.2187H69.514C71.2549 7.36835 73.3019 8.80215 73.3019 10.6923V15.8146C73.3019 17.7037 71.2538 19.1385 69.514 19.1385ZM52.6042 15.31V11.1969C52.6042 10.5063 52.0459 9.94152 51.3632 9.94152H44.9061C44.3403 9.94152 43.7733 10.3497 43.6792 11.0207V11.0174C43.6706 11.0765 43.6662 11.5997 43.6662 11.6609V15.31C43.6662 15.9995 44.2245 16.5654 44.9061 16.5654H48.1347H51.3632C52.0459 16.5654 52.6042 15.9995 52.6042 15.31ZM51.9637 19.1385H50.9542H49.3681H48.1347H48.0405H44.3056C42.5648 19.1385 40.5188 17.7047 40.5188 15.8146V10.6923C40.5188 8.80215 42.5648 7.36835 44.3056 7.36835H45.0966H46.2975H47.202H48.8271H51.9637C53.7046 7.36835 55.7516 8.80215 55.7516 10.6923V15.8146C55.7516 17.7037 53.7035 19.1385 51.9637 19.1385ZM96.382 0.385498V14.6008C96.382 15.681 97.2573 16.5654 98.3252 16.5654H102.557V17.233V18.4709V19.1385H99.8572H96.9576C95.2178 19.1385 93.1708 17.7047 93.1708 15.8146V3.27167C93.1708 1.67808 94.4486 0.385498 96.0239 0.385498H96.382ZM105.186 9.89117C105.186 8.43658 106.605 7.36835 108.039 7.36835H108.396V19.1418H105.186V9.89117ZM125.788 9.94259H115.412C113.876 9.94259 113.883 11.9784 115.412 11.9784C116.783 11.9784 118.091 11.9543 119.454 11.9543C119.556 11.9543 119.659 11.9576 119.762 11.963H122.352C124.095 11.963 126.14 13.3958 126.14 15.287V15.8146C126.14 17.7047 124.095 19.1385 122.352 19.1385H121.785H119.456H119.182H111.025V16.5654H121.752C123.352 16.5654 123.308 14.5274 121.751 14.5274C120.389 14.5274 119.047 14.5526 117.709 14.5526C117.612 14.5526 117.515 14.5493 117.417 14.5439H114.811C113.069 14.5439 111.025 13.1111 111.025 11.221V10.6923C111.025 8.80215 113.069 7.36835 114.811 7.36835H117.708H125.788V9.94259ZM34.91 9.41505C34.91 7.95939 35.9 7.36835 37.3325 7.36835L39.438 7.37493C38.6362 7.46797 38.1093 7.68464 38.1201 9.6646V17.3523C38.1201 18.0824 37.5932 19.1418 36.8716 19.1418H33.9665H33.9676H33.9665C33.2687 19.1561 32.7039 18.5005 32.2235 18.0222L24.0288 9.85394V17.3523C24.0288 18.0824 23.5009 19.1418 22.7803 19.1418H19.8752H19.8763H19.8752C19.1774 19.1561 18.6115 18.5005 18.1322 18.0222L9.97863 9.89446C9.97758 9.97542 9.97648 10.0575 9.97758 10.1429V19.1418H6.76851V9.89117C6.76851 8.43658 7.75847 7.36835 9.1899 7.36835L11.2943 7.37493C11.4901 7.37493 11.7195 7.42856 12.1134 7.81928L20.8176 16.4242V9.41505C20.8176 7.95939 21.8108 7.36835 23.2412 7.36835L25.3456 7.37493H25.3423H25.3759C25.575 7.37382 25.8043 7.42198 26.2057 7.81928L34.91 16.4242V9.41505ZM1.23975 9.89117C1.23975 8.43658 2.66036 7.36835 4.09393 7.36835H4.45097V19.1418H1.23975V9.89117ZM89.1514 24.1721C89.1514 22.7176 90.5719 21.6493 92.0055 21.6493H92.3626V33.4228H89.1514V24.1721ZM55.1706 21.7106C53.605 22.0028 52.0243 23.3108 52.0243 24.9733V30.0955C52.0243 31.9857 54.0702 33.4195 55.8111 33.4195H59.6412H60.8735H63.4702C65.21 33.4195 67.257 31.9846 67.257 30.0955V25.4778V21.7106C65.6914 22.0017 64.1086 23.3108 64.1086 24.9733C64.1086 26.5122 64.1086 28.051 64.1086 29.5899C64.1086 30.2816 63.5513 30.8463 62.8676 30.8463H59.6412H56.4137C55.7299 30.8463 55.1706 30.2816 55.1706 29.5899V28.6574V25.4778V21.7106ZM156.026 24.1721C156.026 22.7176 157.445 21.6493 158.879 21.6493H159.236V33.4228H156.026V24.1721ZM185.7 42.356H185.342C183.767 42.356 182.489 41.0645 182.489 39.472V33.3702V33.3691C182.295 33.402 182.103 33.4195 181.913 33.4195H176.852H176.851H174.255C172.516 33.4195 170.467 31.9846 170.467 30.0955V24.9733C170.467 23.3108 172.05 22.0017 173.616 21.7106V25.4778V28.0926V29.5899V29.6227C173.633 30.298 174.185 30.8463 174.856 30.8463H181.312C181.899 30.8463 182.396 30.4271 182.522 29.8701V29.8668C182.543 29.7781 182.553 29.6851 182.553 29.5899V28.0926V26.65V24.9733C182.553 23.3108 184.133 22.0017 185.7 21.7106V25.4778V29.6709V30.0955V30.1065V42.356ZM128.609 24.1688C128.609 22.7132 130.028 21.646 131.462 21.646H131.819H136.583V21.6493H137.587V24.2225H136.583H133.762C132.694 24.2225 131.819 25.1079 131.819 26.1882V33.4195H128.609V24.1688ZM69.5735 24.1721C69.5735 22.7176 70.5635 21.6493 71.996 21.6493L74.0993 21.6559C74.2951 21.6559 74.5245 21.7084 74.9194 22.0991L83.6237 30.7051V23.6949C83.6237 22.2393 84.6169 21.6493 86.0472 21.6493L88.1516 21.6559C87.351 21.7478 86.823 21.9645 86.8349 23.9456V31.6333C86.8349 32.3622 86.3069 33.4228 85.5852 33.4228H83.3986H82.6813C81.9824 33.437 81.4165 32.7803 80.9383 32.3031L72.7847 24.1754C72.7826 24.2553 72.7826 24.3374 72.7826 24.4228V33.4228H69.5735V24.1721ZM111.053 21.6493C109.643 21.6548 107.7 21.4589 106.683 23.1532L101.987 30.3659L97.2898 23.1532C96.3409 21.4906 94.3858 21.6493 92.9198 21.6493L99.3217 31.6092C99.9687 32.6151 100.709 33.3079 101.637 33.4053C102.77 33.5246 103.796 32.9412 104.652 31.6092C106.624 28.5413 108.906 24.9908 111.053 21.6493ZM169.526 31.514V32.7518V33.4195H168.239H165.339C163.599 33.4195 161.552 31.9857 161.552 30.0955V26.6413V24.9733V24.9645V17.5526C161.552 15.9591 162.831 14.6664 164.405 14.6664H164.763V21.6986C164.957 21.6668 165.15 21.6493 165.339 21.6493H168.239H168.639V24.2225H166.707H164.763V26.1641V26.1761V27.3089V28.8806C164.763 29.962 165.639 30.8463 166.707 30.8463H169.526V31.514ZM126.105 30.8463H115.378C113.844 30.8463 113.844 28.8084 115.379 28.8084C116.74 28.8084 118.083 28.8325 119.42 28.8325C119.517 28.8325 119.615 28.8303 119.713 28.8248H122.319C124.06 28.8248 126.105 27.3921 126.105 25.5019V24.9733C126.105 23.0831 124.06 21.6493 122.319 21.6493H119.873H119.421H117.221H114.775C113.034 21.6493 110.989 23.0831 110.989 24.9733V25.237V29.5669V30.0955C110.989 31.9857 113.035 33.4195 114.777 33.4195C118.553 33.4195 122.329 33.4195 126.105 33.4195V30.8463ZM114.777 26.244L121.718 26.2593C123.247 26.2593 123.254 24.2225 121.718 24.2225H119.873H117.221H115.377C114.775 24.2225 114.271 24.6603 114.158 25.237H114.15V26.3031C114.361 26.2648 114.571 26.244 114.777 26.244ZM153.356 24.2225H142.979C141.444 24.2225 141.451 26.2593 142.979 26.2593C144.351 26.2593 145.659 26.2352 147.022 26.2352C147.124 26.2352 147.227 26.2385 147.33 26.244H149.92C151.662 26.244 153.708 27.6767 153.708 29.5669V30.0955C153.708 31.9857 151.662 33.4195 149.92 33.4195H149.353H147.023H146.749H138.593V30.8463H149.32C150.92 30.8463 150.877 28.8084 149.319 28.8084C147.956 28.8084 146.615 28.8325 145.277 28.8325C145.18 28.8325 145.083 28.8303 144.984 28.8248H142.379C140.637 28.8248 138.593 27.3921 138.593 25.5019V24.9733C138.593 23.0831 140.637 21.6493 142.379 21.6493H145.276H153.356V24.2225Z" fill="white"/>
<path d="M229.378 17.2122L227.672 14.7387C228.661 14.3096 229.236 13.4636 229.236 12.3089C229.236 10.5829 227.965 9.51685 225.933 9.51685H222.641V17.2122H224.401V15.0681H225.933H226.02L227.487 17.2122H229.378ZM227.454 12.3089C227.454 13.1451 226.911 13.6507 225.836 13.6507H224.401V10.9681H225.836C226.911 10.9681 227.454 11.4629 227.454 12.3089Z" fill="white"/>
<path d="M232.377 15.7828V14.0021H235.909V12.6175H232.377V10.9462H236.376V9.51685H230.628V17.2122H236.517V15.7828H232.377Z" fill="white"/>
<path d="M240.419 17.3446C242.593 17.3446 243.647 16.2447 243.647 14.9609C243.647 12.1349 239.224 13.1155 239.224 11.696C239.224 11.21 239.626 10.8138 240.669 10.8138C241.343 10.8138 242.07 11.0119 242.777 11.419L243.321 10.0663C242.615 9.61643 241.637 9.3855 240.68 9.3855C238.517 9.3855 237.474 10.4734 237.474 11.7835C237.474 14.6412 241.897 13.6518 241.897 15.0922C241.897 15.5628 241.473 15.9152 240.43 15.9152C239.517 15.9152 238.561 15.5847 237.92 15.1141L237.322 16.4537C237.996 16.9813 239.213 17.3446 240.419 17.3446Z" fill="white"/>
<path d="M246.602 15.7828V14.0021H250.133V12.6175H246.602V10.9462H250.6V9.51685H244.852V17.2122H250.741V15.7828H246.602Z" fill="white"/>
<path d="M257.829 17.2122H259.676L256.274 9.51685H254.535L251.146 17.2122H252.949L253.623 15.5628H257.155L257.829 17.2122ZM254.188 14.2111L255.394 11.2647L256.601 14.2111H254.188Z" fill="white"/>
<path d="M267.208 17.2122L265.502 14.7387C266.491 14.3096 267.066 13.4636 267.066 12.3089C267.066 10.5829 265.795 9.51685 263.763 9.51685H260.471V17.2122H262.231V15.0681H263.763H263.85L265.317 17.2122H267.208ZM265.284 12.3089C265.284 13.1451 264.741 13.6507 263.666 13.6507H262.231V10.9681H263.666C264.741 10.9681 265.284 11.4629 265.284 12.3089Z" fill="white"/>
<path d="M272.097 17.3446C273.423 17.3446 274.52 16.8609 275.238 15.97L274.108 14.9149C273.596 15.519 272.956 15.8266 272.195 15.8266C270.772 15.8266 269.761 14.8153 269.761 13.365C269.761 11.9138 270.772 10.9025 272.195 10.9025C272.956 10.9025 273.596 11.21 274.108 11.8032L275.238 10.7482C274.52 9.86927 273.423 9.3855 272.108 9.3855C269.739 9.3855 267.979 11.0448 267.979 13.365C267.979 15.6843 269.739 17.3446 272.097 17.3446Z" fill="white"/>
<path d="M281.638 9.51685V12.5508H278.183V9.51685H276.422V17.2122H278.183V14.0568H281.638V17.2122H283.399V9.51685H281.638Z" fill="white"/>
<path d="M229.41 32.4171L228.519 31.582C228.846 31.0873 229.074 30.493 229.214 29.8341L227.857 29.4051C227.769 29.856 227.639 30.2632 227.476 30.6035L226.085 29.2956C227.118 28.7232 227.574 28.1409 227.574 27.3496C227.574 26.2617 226.704 25.5798 225.39 25.5798C223.955 25.5798 223.02 26.3492 223.02 27.47C223.02 28.0205 223.249 28.5152 223.803 29.0975C222.641 29.7575 222.13 30.4273 222.13 31.3949C222.13 32.6262 223.358 33.5061 225.031 33.5061C226.009 33.5061 226.879 33.1975 227.574 32.648L228.486 33.5061L229.41 32.4171ZM225.39 26.7444C225.879 26.7444 226.14 27.0092 226.14 27.3824C226.14 27.7338 225.9 28.0205 225.151 28.4266C224.683 27.9647 224.563 27.7447 224.563 27.4481C224.563 27.0421 224.868 26.7444 225.39 26.7444ZM225.151 32.1643C224.313 32.1643 223.792 31.7692 223.792 31.2077C223.792 30.7349 224.042 30.3835 224.737 29.9764L226.575 31.7133C226.161 32.0111 225.672 32.1643 225.151 32.1643Z" fill="white"/>
<path d="M233.627 33.3736H237.083C239.572 33.3736 241.278 31.8567 241.278 29.5265C241.278 27.1952 239.572 25.6782 237.083 25.6782H233.627V33.3736ZM235.388 31.9114V27.1405H236.996C238.506 27.1405 239.495 28.0533 239.495 29.5265C239.495 30.9986 238.506 31.9114 236.996 31.9114H235.388Z" fill="white"/>
<path d="M244.352 31.9442V30.1635H247.884V28.7789H244.352V27.1077H248.351V25.6782H242.603V33.3736H248.492V31.9442H244.352Z" fill="white"/>
<path d="M255.35 25.6782L253.003 31.1748L250.688 25.6782H248.787L252.068 33.3736H253.807L257.099 25.6782H255.35Z" fill="white"/>
<path d="M259.479 31.9442V30.1635H263.01V28.7789H259.479V27.1077H263.478V25.6782H257.729V33.3736H263.619V31.9442H259.479Z" fill="white"/>
<path d="M265.021 33.3736H270.596V31.9223H266.782V25.6782H265.021V33.3736Z" fill="white"/>
<path d="M275.14 33.506C277.53 33.506 279.301 31.8238 279.301 29.5264C279.301 27.228 277.53 25.5469 275.14 25.5469C272.738 25.5469 270.978 27.2389 270.978 29.5264C270.978 31.8128 272.738 33.506 275.14 33.506ZM275.14 31.988C273.781 31.988 272.759 30.9876 272.759 29.5264C272.759 28.0642 273.781 27.0638 275.14 27.0638C276.498 27.0638 277.519 28.0642 277.519 29.5264C277.519 30.9876 276.498 31.988 275.14 31.988Z" fill="white"/>
<path d="M283.918 25.6782H280.626V33.3736H282.386V31.2525H283.918C285.95 31.2525 287.222 30.1854 287.222 28.4703C287.222 26.7443 285.95 25.6782 283.918 25.6782ZM283.821 29.8012H282.386V27.1295H283.821C284.896 27.1295 285.44 27.6242 285.44 28.4703C285.44 29.3065 284.896 29.8012 283.821 29.8012Z" fill="white"/>
<path d="M297.045 33.3736L297.024 25.6782H295.576L292.774 30.4601L289.929 25.6782H288.473V33.3736H290.124V28.8555L292.351 32.5604H293.144L295.38 28.7571L295.391 33.3736H297.045Z" fill="white"/>
<path d="M300.6 31.9442V30.1635H304.132V28.7789H300.6V27.1077H304.599V25.6782H298.851V33.3736H304.74V31.9442H300.6Z" fill="white"/>
<path d="M311.381 25.6782V30.3506L307.599 25.6782H306.143V33.3736H307.882V28.7012L311.674 33.3736H313.119V25.6782H311.381Z" fill="white"/>
<path d="M316.5 33.3736H318.26V27.1295H320.695V25.6782H314.065V27.1295H316.5V33.3736Z" fill="white"/>
<path d="M206.476 0.889145C206.476 0.604921 206.249 0.374512 205.968 0.374512C205.687 0.374512 205.46 0.604921 205.46 0.889145V41.8508C205.46 42.135 205.687 42.3654 205.968 42.3654C206.249 42.3654 206.476 42.135 206.476 41.8508V0.889145Z" fill="white"/>
</g>
<defs>
<clipPath id="clip0">
<rect width="321.934" height="41.9914" fill="white" transform="translate(0 0.374512)"/>
</clipPath>
</defs>
</svg>
