<svg width="79" height="79" viewBox="0 0 79 79" fill="none" xmlns="http://www.w3.org/2000/svg">
<path d="M21.6255 27.0144V10.2488C21.6255 5.69238 25.3182 2 29.8744 2H48.8677C53.4198 2 57.1168 5.69238 57.1168 10.2488V27.0144" stroke="#0071CE" stroke-width="2.6113"/>
<path d="M47.8523 9.755H30.8909C30.007 9.755 29.2905 10.4715 29.2905 11.3554V27.0156H49.4527V11.3554C49.4527 10.4715 48.7362 9.755 47.8523 9.755Z" stroke="#0071CE" stroke-width="2.6113"/>
<path d="M38.8072 39.2585C34.3207 39.537 30.7067 43.2503 30.5395 47.7418C30.4073 51.301 32.3801 54.412 35.3116 55.9309C35.4729 56.0144 35.5771 56.177 35.5771 56.3588V66.2518H39.3715H43.1661V56.3679C43.1661 56.1805 43.2731 56.0127 43.4393 55.9262C46.2732 54.4545 48.2095 51.4933 48.2095 48.0789C48.2095 43.011 43.944 38.9394 38.8072 39.2585Z" stroke="#0071CE" stroke-width="2.6113"/>
<path d="M76.7417 27.0158H2V76.7474H76.7417V27.0158Z" stroke="#0071CE" stroke-width="2.6113"/>
</svg>
