<?xml version="1.0" encoding="UTF-8" standalone="no"?>
<svg
   xmlns:dc="http://purl.org/dc/elements/1.1/"
   xmlns:cc="http://creativecommons.org/ns#"
   xmlns:rdf="http://www.w3.org/1999/02/22-rdf-syntax-ns#"
   xmlns:svg="http://www.w3.org/2000/svg"
   xmlns="http://www.w3.org/2000/svg"
   xmlns:sodipodi="http://sodipodi.sourceforge.net/DTD/sodipodi-0.dtd"
   xmlns:inkscape="http://www.inkscape.org/namespaces/inkscape"
   width="21"
   height="15"
   viewBox="0 0 21 15"
   fill="none"
   version="1.1"
   id="svg4"
   sodipodi:docname="icon-youtube.svg"
   inkscape:version="1.0.2-2 (e86c870879, 2021-01-15)">
  <metadata
     id="metadata10">
    <rdf:RDF>
      <cc:Work
         rdf:about="">
        <dc:format>image/svg+xml</dc:format>
        <dc:type
           rdf:resource="http://purl.org/dc/dcmitype/StillImage" />
      </cc:Work>
    </rdf:RDF>
  </metadata>
  <defs
     id="defs8" />
  <sodipodi:namedview
     pagecolor="#ffffff"
     bordercolor="#666666"
     borderopacity="1"
     objecttolerance="10"
     gridtolerance="10"
     guidetolerance="10"
     inkscape:pageopacity="0"
     inkscape:pageshadow="2"
     inkscape:window-width="1280"
     inkscape:window-height="1002"
     id="namedview6"
     showgrid="false"
     inkscape:zoom="47.333333"
     inkscape:cx="10.5"
     inkscape:cy="7.5"
     inkscape:window-x="-8"
     inkscape:window-y="892"
     inkscape:window-maximized="1"
     inkscape:current-layer="svg4" />
  <g
     id="path2"
     style="opacity:1">
    <path
       style="color:#000000;font-style:normal;font-variant:normal;font-weight:normal;font-stretch:normal;font-size:medium;line-height:normal;font-family:sans-serif;font-variant-ligatures:normal;font-variant-position:normal;font-variant-caps:normal;font-variant-numeric:normal;font-variant-alternates:normal;font-variant-east-asian:normal;font-feature-settings:normal;font-variation-settings:normal;text-indent:0;text-align:start;text-decoration:none;text-decoration-line:none;text-decoration-style:solid;text-decoration-color:#000000;letter-spacing:normal;word-spacing:normal;text-transform:none;writing-mode:lr-tb;direction:ltr;text-orientation:mixed;dominant-baseline:auto;baseline-shift:baseline;text-anchor:start;white-space:normal;shape-padding:0;shape-margin:0;inline-size:0;clip-rule:evenodd;display:inline;overflow:visible;visibility:visible;isolation:auto;mix-blend-mode:normal;color-interpolation:sRGB;color-interpolation-filters:linearRGB;solid-color:#000000;solid-opacity:1;vector-effect:none;fill:#eeeeee;fill-opacity:1;fill-rule:evenodd;stroke:none;stroke-width:0.899378;stroke-linecap:butt;stroke-linejoin:miter;stroke-miterlimit:4;stroke-dasharray:none;stroke-dashoffset:0;stroke-opacity:1.0;color-rendering:auto;image-rendering:auto;shape-rendering:auto;text-rendering:auto;enable-background:accumulate;stop-color:#000000;stop-opacity:1;"
       d="M 19.8228,3.13306 C 19.5859,2.09519 18.7444,1.32943 17.7316,1.21516 15.333,0.944993 12.9051,0.943566 10.4885,0.944993 8.07147,0.943566 5.64325,0.944993 3.24461,1.21516 2.23232,1.32943 1.39152,2.09519 1.15474,3.13306 0.817823,4.61127 0.813965,6.22476 0.813965,7.74668 c 0,1.52192 -5e-6,3.13532 0.337035,4.61322 0.2364,1.0378 1.07746,1.8036 2.09039,1.9179 2.39839,0.2704 4.82635,0.2719 7.24341,0.2704 2.4174,0.0015 4.8447,0 7.2431,-0.2704 1.0123,-0.1141 1.854,-0.8799 2.0908,-1.9179 C 20.156,10.8818 20.1571,9.26847 20.1571,7.74668 20.157,6.22476 20.1598,4.61127 19.8228,3.13306 Z M 7.98933,10.776 V 4.32152 C 10.0394,5.40076 12.0758,6.47275 14.1386,7.55861 12.0821,8.635 10.0446,9.7005 7.98933,10.776 Z"
       id="path14" />
    <path
       style="color:#000000;font-style:normal;font-variant:normal;font-weight:normal;font-stretch:normal;font-size:medium;line-height:normal;font-family:sans-serif;font-variant-ligatures:normal;font-variant-position:normal;font-variant-caps:normal;font-variant-numeric:normal;font-variant-alternates:normal;font-variant-east-asian:normal;font-feature-settings:normal;font-variation-settings:normal;text-indent:0;text-align:start;text-decoration:none;text-decoration-line:none;text-decoration-style:solid;text-decoration-color:#000000;letter-spacing:normal;word-spacing:normal;text-transform:none;writing-mode:lr-tb;direction:ltr;text-orientation:mixed;dominant-baseline:auto;baseline-shift:baseline;text-anchor:start;white-space:normal;shape-padding:0;shape-margin:0;inline-size:0;clip-rule:evenodd;display:inline;overflow:visible;visibility:visible;isolation:auto;mix-blend-mode:normal;color-interpolation:sRGB;color-interpolation-filters:linearRGB;solid-color:#000000;solid-opacity:1;vector-effect:none;fill:#322f2f;fill-opacity:1;fill-rule:evenodd;stroke:none;stroke-linecap:butt;stroke-linejoin:miter;stroke-miterlimit:4;stroke-dasharray:none;stroke-dashoffset:0;stroke-opacity:1.0;color-rendering:auto;image-rendering:auto;shape-rendering:auto;text-rendering:auto;enable-background:accumulate;stop-color:#000000;stop-opacity:1;"
       d="M 10.488281 0.49609375 C 8.0708964 0.49466654 5.6253671 0.4936528 3.1933594 0.76757812 C 1.9861335 0.90385301 0.99425545 1.8170281 0.71679688 3.0332031 C 0.36428964 4.5798147 0.36523437 6.2234138 0.36523438 7.7460938 C 0.36523438 9.2680128 0.36007568 10.911912 0.71289062 12.458984 C 0.98995034 13.675281 1.9836475 14.588325 3.1914062 14.724609 C 5.6231861 14.998774 8.0669421 14.999547 10.484375 14.998047 C 12.902148 14.999547 15.345563 14.998773 17.777344 14.724609 C 18.984612 14.588534 19.980286 13.675509 20.257812 12.458984 C 20.610856 10.911895 20.607422 9.2681005 20.607422 7.7460938 C 20.607322 6.2247462 20.614601 4.5810807 20.261719 3.0332031 C 19.984085 1.8168778 18.988882 0.90383025 17.78125 0.76757812 C 15.349286 0.49365311 12.905236 0.49466654 10.488281 0.49609375 z M 10.488281 1.3945312 C 12.904526 1.3931045 15.316405 1.3957004 17.681641 1.6621094 C 18.499608 1.7543973 19.188599 2.3730072 19.384766 3.2324219 C 19.705883 4.6409643 19.706931 6.2236013 19.707031 7.7460938 C 19.707031 9.267667 19.702416 10.850655 19.380859 12.259766 C 19.184786 13.119241 18.495066 13.737954 17.677734 13.830078 C 15.312715 14.096715 12.901402 14.099156 10.484375 14.097656 C 8.0676879 14.099156 5.6560157 14.096714 3.2910156 13.830078 C 2.4729143 13.737763 1.785584 13.119069 1.5898438 12.259766 C 1.2685787 10.851038 1.2636719 9.2680147 1.2636719 7.7460938 C 1.2636719 6.2249337 1.2724232 4.6422303 1.59375 3.2324219 C 1.7898514 2.3728569 2.4775678 1.7543745 3.2949219 1.6621094 C 5.6601941 1.3957007 8.0716061 1.3931045 10.488281 1.3945312 z M 7.5390625 3.5761719 L 7.5390625 11.519531 L 8.1972656 11.173828 C 10.252464 10.098365 12.29106 9.0334714 14.347656 7.9570312 L 15.105469 7.5605469 L 14.347656 7.1601562 C 12.284859 6.0742977 10.249283 5.0030653 8.1992188 3.9238281 L 7.5390625 3.5761719 z M 8.4394531 5.0664062 C 10.014272 5.8954461 11.587959 6.7238883 13.169922 7.5566406 C 11.590711 8.3830531 10.018394 9.2070619 8.4394531 10.033203 L 8.4394531 5.0664062 z "
       id="path16" />
  </g>
</svg>
