<svg width="71" height="71" viewBox="0 0 71 71" fill="none" xmlns="http://www.w3.org/2000/svg">
<path d="M37.1641 16.6089C41.7507 16.6089 45.4689 12.8909 45.4689 8.30444C45.4689 3.71802 41.7507 0 37.1641 0C32.5775 0 28.8594 3.71802 28.8594 8.30444C28.8594 12.8909 32.5775 16.6089 37.1641 16.6089Z" fill="#0071CE"/>
<path d="M37.1649 70.9999C39.9166 70.9999 42.1472 68.7693 42.1472 66.0178C42.1472 63.2662 39.9166 61.0356 37.1649 61.0356C34.4133 61.0356 32.1826 63.2662 32.1826 66.0178C32.1826 68.7693 34.4133 70.9999 37.1649 70.9999Z" fill="#0071CE"/>
<path d="M16.7585 24.2289C20.8867 24.2289 24.2333 20.8824 24.2333 16.7543C24.2333 12.6262 20.8867 9.27979 16.7585 9.27979C12.6303 9.27979 9.28369 12.6262 9.28369 16.7543C9.28369 20.8824 12.6303 24.2289 16.7585 24.2289Z" fill="#0071CE"/>
<path d="M57.5708 61.7148C59.8641 61.7148 61.7232 59.8558 61.7232 57.5626C61.7232 55.2694 59.8641 53.4104 57.5708 53.4104C55.2775 53.4104 53.4185 55.2694 53.4185 57.5626C53.4185 59.8558 55.2775 61.7148 57.5708 61.7148Z" fill="#0071CE"/>
<path d="M8.30527 43.8045C11.9737 43.8045 14.9475 40.8308 14.9475 37.1626C14.9475 33.4943 11.9737 30.5206 8.30527 30.5206C4.63689 30.5206 1.66309 33.4943 1.66309 37.1626C1.66309 40.8308 4.63689 43.8045 8.30527 43.8045Z" fill="#0071CE"/>
<path d="M66.0204 40.4795C67.8539 40.4795 69.3402 38.9932 69.3402 37.1598C69.3402 35.3265 67.8539 33.8402 66.0204 33.8402C64.187 33.8402 62.7007 35.3265 62.7007 37.1598C62.7007 38.9932 64.187 40.4795 66.0204 40.4795Z" fill="#0071CE"/>
<path d="M12.649 53.4588C10.3774 55.7303 10.3774 59.4056 12.649 61.677C14.9178 63.9485 18.5986 63.9485 20.8675 61.677C23.139 59.4056 23.139 55.7303 20.8675 53.4588C18.5986 51.1847 14.9205 51.1631 12.649 53.4588Z" fill="#0071CE"/>
<path d="M57.5684 19.2441C58.9435 19.2441 60.0582 18.1294 60.0582 16.7544C60.0582 15.3793 58.9435 14.2646 57.5684 14.2646C56.1933 14.2646 55.0786 15.3793 55.0786 16.7544C55.0786 18.1294 56.1933 19.2441 57.5684 19.2441Z" fill="#0071CE"/>
</svg>
