<svg width="83" height="83" viewBox="0 0 83 83" fill="none" xmlns="http://www.w3.org/2000/svg">
<path d="M46.6327 17.3179C46.6327 20.0612 44.4087 22.2851 41.6648 22.2851C38.9216 22.2851 36.6978 20.0612 36.6978 17.3179C36.6978 14.5751 38.9216 12.3508 41.6648 12.3508C44.4087 12.3508 46.6327 14.5751 46.6327 17.3179Z" stroke="#0071CE" stroke-width="2.77165"/>
<path d="M38.8145 22.0641L32.5615 42.3423" stroke="#0071CE" stroke-width="2.77165"/>
<path d="M44.5161 22.0641L50.7691 42.3423" stroke="#0071CE" stroke-width="2.77165"/>
<path d="M32.7134 29.3909H50.6169" stroke="#0071CE" stroke-width="2.77165"/>
<path d="M81.3318 62.2782H2.00049V2H81.3318V62.2782Z" stroke="#0071CE" stroke-width="2.77165"/>
<path d="M15.3608 81.3352H67.9702" stroke="#0071CE" stroke-width="2.77165"/>
<path d="M34.6562 62.2782V81.3369" stroke="#0071CE" stroke-width="2.77165"/>
<path d="M48.6743 62.2782V81.3369" stroke="#0071CE" stroke-width="2.77165"/>
<path d="M2 49.989H81.3313" stroke="#0071CE" stroke-width="2.77165"/>
<path d="M39.8184 56.2206H43.514" stroke="#0071CE" stroke-width="2.77165"/>
</svg>
