<svg width="79" height="77" viewBox="0 0 79 77" fill="none" xmlns="http://www.w3.org/2000/svg">
<path d="M22.8149 2H55.9306C60.1613 2 63.5907 5.42971 63.5907 9.66055V41.1098H15.1543V9.66055C15.1543 5.42971 18.584 2 22.8149 2Z" stroke="#0071CE" stroke-width="2.61138"/>
<path d="M15.1543 76.7439V50.7673H63.5911V76.7439" stroke="#0071CE" stroke-width="2.61138"/>
<path d="M35.5693 22.1516C35.5693 18.5189 32.6247 15.5742 28.9918 15.5742C25.359 15.5742 22.4141 18.5189 22.4141 22.1516C22.4141 25.7844 25.359 28.7291 28.9918 28.7291C32.6247 28.7291 35.5693 25.7844 35.5693 22.1516Z" stroke="#0071CE" stroke-width="2.61138"/>
<path d="M56.4524 22.1516C56.4524 18.5189 53.5077 15.5742 49.8749 15.5742C46.2422 15.5742 43.2971 18.5189 43.2971 22.1516C43.2971 25.7844 46.2422 28.7291 49.8749 28.7291C53.5077 28.7291 56.4524 25.7844 56.4524 22.1516Z" stroke="#0071CE" stroke-width="2.61138"/>
<path d="M8.19385 67.7562V76.744" stroke="#0071CE" stroke-width="2.61138"/>
<path d="M8.57749 28.7291H15.155V15.5739H8.57749C4.94504 15.5739 2 18.5189 2 22.1517C2 25.7844 4.94504 28.7291 8.57749 28.7291Z" stroke="#0071CE" stroke-width="2.61138"/>
<path d="M8.57749 67.7562H15.155V54.601H8.57749C4.94504 54.601 2 57.546 2 61.1788C2 64.8116 4.94504 67.7562 8.57749 67.7562Z" stroke="#0071CE" stroke-width="2.61138"/>
<path d="M70.5525 67.7562V76.744" stroke="#0071CE" stroke-width="2.61138"/>
<path d="M70.1695 67.7562H63.592V54.601H70.1695C73.8023 54.601 76.7473 57.546 76.7473 61.1788C76.7473 64.8116 73.8023 67.7562 70.1695 67.7562Z" stroke="#0071CE" stroke-width="2.61138"/>
<path d="M70.1695 15.5739H63.592V28.7291H70.1695C73.8023 28.7291 76.7473 25.7841 76.7473 22.1513C76.7473 18.5185 73.8023 15.5739 70.1695 15.5739Z" stroke="#0071CE" stroke-width="2.61138"/>
<path d="M32.7681 50.7673V41.11" stroke="#0071CE" stroke-width="2.61138"/>
<path d="M45.9756 41.11V50.7673" stroke="#0071CE" stroke-width="2.61138"/>
</svg>
